<?xml version="1.0" encoding="UTF-8" standalone="no"?><!DOCTYPE svg PUBLIC "-//W3C//DTD SVG 1.1//EN" "http://www.w3.org/Graphics/SVG/1.1/DTD/svg11.dtd"><svg width="100%" height="100%" viewBox="0 0 12 12" version="1.1" xmlns="http://www.w3.org/2000/svg" xmlns:xlink="http://www.w3.org/1999/xlink" xml:space="preserve" xmlns:serif="http://www.serif.com/" style="fill-rule:evenodd;clip-rule:evenodd;stroke-linejoin:round;stroke-miterlimit:2;"><g><rect x="0.96" y="0.96" width="10.08" height="10.08" style="fill:#4d004c;"/><path d="M12,1.818l0,8.364c0,1.004 -0.814,1.818 -1.818,1.818l-8.364,0c-1.004,0 -1.818,-0.814 -1.818,-1.818l0,-8.364c0,-1.004 0.814,-1.818 1.818,-1.818l8.364,0c1.004,0 1.818,0.814 1.818,1.818Zm-6,5.406l2.262,2.262l1.224,-1.224l-2.262,-2.262l2.262,-2.262l-1.224,-1.224l-2.262,2.262l-2.262,-2.262l-1.224,1.224l2.262,2.262l-2.262,2.262l1.224,1.224l2.262,-2.262Z" style="fill:#f50078;"/></g></svg>